<svg width="214" height="62" viewBox="0 0 214 62" fill="none" xmlns="http://www.w3.org/2000/svg">
<path d="M15.5004 25.9109L15.2439 25.5577C15.0088 25.2581 14.56 25.1082 13.8974 25.1082H1.07397L0.72132 24.0808L1.39455 23.8881C2.16396 23.6527 2.6769 23.3637 2.93337 23.0212C3.21121 22.6573 3.35013 22.0045 3.35013 21.0627V6.32522C3.35013 5.31918 3.21121 4.62351 2.93337 4.23822C2.65553 3.85293 2.11053 3.55325 1.29838 3.3392L0.561027 3.14656L0.945731 2.05489H7.96658L8.38335 2.56862L7.96658 3.14656C7.45364 3.87433 7.07963 4.62351 6.84453 5.3941C6.63081 6.16468 6.52394 7.20283 6.52394 8.50855V20.8379C6.52394 21.8225 6.65218 22.4754 6.90865 22.7965C7.18649 23.1176 7.74217 23.2781 8.5757 23.2781H11.3648C12.1342 23.2781 12.7326 23.2032 13.1601 23.0533C13.5875 22.8821 13.9295 22.5931 14.186 22.1864C14.4424 21.7583 14.6668 21.1697 14.8592 20.4205L15.0516 19.682L16.1416 20.0673V25.5577L15.5004 25.9109Z" fill="white"/>
<path d="M20.2709 25.5577C19.3946 25.5577 18.7641 25.2902 18.3794 24.7551C17.9947 24.2199 17.8023 23.353 17.8023 22.1543V12.2009C17.8023 11.73 17.5886 11.4946 17.1612 11.4946H15.7506L15.4621 10.6598C16.0819 10.1032 16.7871 9.64302 17.5779 9.27913C18.3901 8.91524 19.0954 8.7333 19.6938 8.7333C19.993 8.7333 20.2281 8.82962 20.3991 9.02227C20.5914 9.21492 20.6876 9.46107 20.6876 9.76075V22.2828C20.6876 23.0105 21.0082 23.3744 21.6494 23.3744C22.1837 23.3744 22.718 23.1497 23.2523 22.7002L23.8614 23.535C23.3057 24.1557 22.7073 24.648 22.0661 25.0119C21.425 25.3758 20.8265 25.5577 20.2709 25.5577ZM19.3091 6.06836C19.074 6.06836 18.7962 5.95063 18.4756 5.71517C18.1764 5.47972 17.9092 5.20145 17.6741 4.88037C17.4604 4.5593 17.3535 4.25962 17.3535 3.98136C17.3535 3.70309 17.4604 3.40342 17.6741 3.08234C17.9092 2.73986 18.1764 2.45089 18.4756 2.21543C18.7748 1.97998 19.0526 1.86225 19.3091 1.86225C19.5869 1.86225 19.8755 1.97998 20.1747 2.21543C20.4953 2.45089 20.7624 2.73986 20.9762 3.08234C21.2112 3.40342 21.3288 3.70309 21.3288 3.98136C21.3288 4.25962 21.2112 4.5593 20.9762 4.88037C20.7624 5.20145 20.4953 5.47972 20.1747 5.71517C19.8755 5.95063 19.5869 6.06836 19.3091 6.06836Z" fill="white"/>
<path d="M27.6932 25.5577C26.8169 25.5577 26.133 25.2902 25.6414 24.7551C25.1712 24.1985 24.9361 23.4386 24.9361 22.4754V11.1735H22.115C22.115 10.5955 22.1577 10.221 22.2432 10.0497C22.3287 9.87848 22.5424 9.75004 22.8844 9.66442C23.7179 9.45037 24.3591 9.14 24.8079 8.7333C25.2781 8.3052 25.6201 7.82358 25.8338 7.28845C26.0689 6.75332 26.2399 6.18609 26.3467 5.58674C26.4108 5.24426 26.5177 5.03021 26.6673 4.94459C26.8383 4.85897 27.2337 4.81616 27.8535 4.81616V9.1507H32.0211C32.0211 10.1139 31.7753 10.7882 31.2838 11.1735H27.8535V21.5122C27.8535 22.1757 27.9497 22.6466 28.142 22.9249C28.3344 23.2032 28.6443 23.3423 29.0717 23.3423C29.7129 23.3423 30.4396 22.9998 31.2517 22.3149L31.8608 23.1497C31.3051 23.8774 30.6426 24.4661 29.8732 24.9156C29.1038 25.3437 28.3771 25.5577 27.6932 25.5577Z" fill="white"/>
<path d="M36.0548 25.5577C35.1785 25.5577 34.4946 25.2902 34.003 24.7551C33.5328 24.1985 33.2977 23.4386 33.2977 22.4754V11.1735H30.4765C30.4765 10.5955 30.5193 10.221 30.6048 10.0497C30.6903 9.87848 30.904 9.75004 31.2459 9.66442C32.0795 9.45037 32.7206 9.14 33.1695 8.7333C33.6397 8.3052 33.9816 7.82358 34.1953 7.28845C34.4304 6.75332 34.6014 6.18609 34.7083 5.58674C34.7724 5.24426 34.8793 5.03021 35.0289 4.94459C35.1999 4.85897 35.5952 4.81616 36.215 4.81616V9.1507H40.3827C40.3827 10.1139 40.1369 10.7882 39.6453 11.1735H36.215V21.5122C36.215 22.1757 36.3112 22.6466 36.5036 22.9249C36.6959 23.2032 37.0058 23.3423 37.4333 23.3423C38.0744 23.3423 38.8011 22.9998 39.6133 22.3149L40.2224 23.1497C39.6667 23.8774 39.0041 24.4661 38.2347 24.9156C37.4653 25.3437 36.7387 25.5577 36.0548 25.5577Z" fill="white"/>
<path d="M44.0957 25.5577C43.2195 25.5577 42.589 25.2902 42.2043 24.7551C41.8196 24.2199 41.6272 23.353 41.6272 22.1543V3.46763C41.6272 2.99672 41.4135 2.76126 40.986 2.76126H39.5754L39.2869 1.92646C39.9067 1.36993 40.612 0.90972 41.4028 0.545832C42.2149 0.181944 42.9202 0 43.5187 0C43.8179 0 44.053 0.0963232 44.224 0.28897C44.4163 0.481616 44.5125 0.727775 44.5125 1.02745V22.2828C44.5125 23.0105 44.8331 23.3744 45.4742 23.3744C46.0086 23.3744 46.5429 23.1497 47.0772 22.7002L47.6863 23.535C47.1306 24.1557 46.5322 24.648 45.891 25.0119C45.2498 25.3758 44.6514 25.5577 44.0957 25.5577Z" fill="white"/>
<path d="M54.4109 25.5577C52.9148 25.5577 51.6111 25.2153 50.4997 24.5303C49.4097 23.8453 48.5548 22.8928 47.935 21.6727C47.3366 20.4312 47.0374 18.9864 47.0374 17.3382C47.0374 15.6044 47.3793 14.0953 48.0632 12.811C48.7472 11.5267 49.7089 10.5313 50.9485 9.82496C52.2095 9.09719 53.6735 8.7333 55.3406 8.7333C56.5802 8.7333 57.5953 8.95805 58.3861 9.40756C59.1983 9.85707 59.7967 10.4457 60.1814 11.1735C60.5875 11.8799 60.7905 12.6397 60.7905 13.4531C60.7905 14.3307 60.5554 15.187 60.0852 16.0218C59.6364 16.8566 58.9525 17.5415 58.0335 18.0766C57.1358 18.6118 56.0138 18.8793 54.6673 18.8793C54.4536 18.8793 54.1437 18.8579 53.7376 18.8151C53.3529 18.7509 52.9575 18.6653 52.5514 18.5583C52.1667 18.4298 51.8355 18.2693 51.5576 18.0766C51.2798 17.884 51.1409 17.6485 51.1409 17.3703C51.1409 17.199 51.1836 17.0385 51.2691 16.8887C51.376 16.7388 51.4935 16.6639 51.6217 16.6639C51.7927 16.6639 52.0065 16.7388 52.2629 16.8887C52.5408 17.0171 53.011 17.0813 53.6735 17.0813C54.5925 17.0813 55.3512 16.9101 55.9497 16.5676C56.5481 16.2037 56.9969 15.7435 57.2961 15.187C57.5953 14.609 57.745 14.0204 57.745 13.421C57.745 12.629 57.4885 11.9227 56.9755 11.3019C56.4626 10.6598 55.7039 10.3387 54.6994 10.3387C53.3315 10.3387 52.2629 10.938 51.4935 12.1367C50.7241 13.3354 50.3394 15.0692 50.3394 17.3382C50.3394 19.2218 50.7348 20.7095 51.5256 21.8011C52.3377 22.8928 53.5239 23.4386 55.0841 23.4386C55.9817 23.4386 56.8259 23.2888 57.6167 22.9891C58.4075 22.6895 59.1235 22.2292 59.7647 21.6085C59.8501 21.5229 59.9463 21.4801 60.0532 21.4801C60.2242 21.4801 60.4058 21.5871 60.5982 21.8011C60.7905 21.9938 60.8867 22.1971 60.8867 22.4112C60.8867 22.5182 60.844 22.6145 60.7585 22.7002C59.1128 24.6052 56.9969 25.5577 54.4109 25.5577Z" fill="white"/>
<path d="M0.528968 61.2294L0 59.5919L1.10602 59.303C2.32425 58.9498 3.17381 58.4842 3.65469 57.9063C4.13557 57.3283 4.4241 56.3009 4.52027 54.8239L5.81865 35.7519C5.85071 35.6235 5.88277 35.3185 5.91483 34.8369C5.94689 34.3232 5.97895 33.7934 6.011 33.2475C6.04306 32.7017 6.05909 32.3004 6.05909 32.0435C6.05909 30.9197 5.85071 30.1331 5.43395 29.6836C5.04924 29.202 4.32792 28.8327 3.26999 28.5759L2.16396 28.2869L2.69293 26.6494H11.445L21.3511 50.8747L31.5457 26.6494H38.4704L39.1917 27.42L38.6147 28.2869C38.0056 29.1538 37.5568 30.0528 37.2682 30.9839C37.0118 31.883 36.8835 33.0067 36.8835 34.3553C36.8835 34.5479 36.8995 34.9492 36.9316 35.5593C36.9637 36.1693 36.9957 36.7794 37.0278 37.3894C37.0919 37.9995 37.124 38.4329 37.124 38.6898L38.0857 51.8861C38.246 53.8446 38.5666 55.4982 39.0475 56.8467C39.5284 58.1631 40.3138 59.3672 41.4038 60.4588L40.7786 61.2294H30.2474L29.6703 59.5919L30.7763 59.303C31.8022 58.9819 32.5075 58.5805 32.8922 58.0989C33.309 57.5852 33.5174 56.8307 33.5174 55.8353C33.5174 55.6106 33.5013 55.3216 33.4693 54.9684C33.4693 54.6152 33.4532 54.3102 33.4212 54.0533L32.0266 33.97L21.9762 57.7618H19.3795L9.32908 33.97L8.27114 48.8037C8.23908 49.3496 8.19099 49.9596 8.12688 50.6339C8.09482 51.3081 8.06276 51.9182 8.0307 52.464C7.99864 52.9777 7.98261 53.3309 7.98261 53.5236C7.98261 54.8721 8.11085 56.0119 8.36732 56.943C8.65585 57.8421 9.10467 58.725 9.71378 59.5919L10.2908 60.4588L9.56952 61.2294H0.528968Z" fill="white"/>
<path d="M50.4875 61.9037C48.9808 61.9037 47.5702 61.4702 46.2558 60.6033C44.9414 59.7364 43.8835 58.436 43.082 56.7022C42.2805 54.9684 41.8798 52.8011 41.8798 50.2004C41.8798 47.407 42.3767 44.999 43.3705 42.9762C44.3964 40.9534 45.839 39.3962 47.6984 38.3045C49.5899 37.2128 51.802 36.667 54.3346 36.667C55.8413 36.667 57.4122 36.8436 59.0472 37.1968C60.6822 37.5179 62.3172 37.7426 63.9522 37.8711L64.4812 38.4972L63.9041 39.3641C63.7118 39.653 63.5515 39.942 63.4232 40.231C63.327 40.4878 63.279 40.825 63.279 41.2424V56.9912C63.279 57.9865 63.7598 58.4842 64.7216 58.4842C65.5231 58.4842 66.3245 58.1952 67.126 57.6173L68.0397 58.8695C67.2062 59.8006 66.3085 60.5391 65.3467 61.0849C64.417 61.6308 63.5354 61.9037 62.7019 61.9037C61.3875 61.9037 60.4418 61.5023 59.8647 60.6996C59.2877 59.8969 58.9991 58.5966 58.9991 56.7985C57.6206 58.7571 56.2261 60.1056 54.8155 60.8441C53.4369 61.5505 51.9943 61.9037 50.4875 61.9037ZM52.4111 58.1952C53.6293 58.1952 54.7994 57.842 55.9215 57.1357C57.0756 56.4293 58.1015 55.3216 58.9991 53.8125V40.8089C57.5244 39.8136 55.9536 39.3159 54.2865 39.3159C51.9462 39.3159 50.1349 40.1989 48.8526 41.9648C47.5702 43.6986 46.929 46.1388 46.929 49.2853C46.929 51.4687 47.1855 53.2185 47.6984 54.535C48.2114 55.8193 48.8846 56.7504 49.7181 57.3283C50.5837 57.9063 51.4814 58.1952 52.4111 58.1952Z" fill="white"/>
<path d="M103.794 61.9037C102.479 61.9037 101.534 61.5023 100.957 60.6996C100.38 59.8969 100.091 58.5966 100.091 56.7985V45.3361C100.091 42.0611 98.9049 40.4236 96.5326 40.4236C95.1861 40.4236 94 40.9534 92.9741 42.0129C91.9482 43.0404 91.1307 44.5013 90.5216 46.3956C89.9445 48.2579 89.6239 50.4412 89.5598 52.9456V53.5236C89.5598 55.0647 89.6881 56.349 89.9445 57.3765C90.201 58.3718 90.778 59.4153 91.6757 60.507L91.0986 61.2294H85.2319V45.3361C85.2319 42.0611 84.0457 40.4236 81.6734 40.4236C80.2949 40.4236 79.0766 40.9694 78.0187 42.0611C76.9928 43.1528 76.1753 44.6939 75.5662 46.6846C74.9891 48.6432 74.7006 50.9228 74.7006 53.5236C74.7006 55.0326 74.8128 56.2367 75.0372 57.1357C75.2616 58.0347 75.6624 58.9016 76.2394 59.7364L76.8165 60.507L76.2394 61.2294H67.824L67.2951 59.7364L68.3049 59.4956C69.1384 59.303 69.6834 58.9498 69.9399 58.436C70.1964 57.9223 70.3246 57.0715 70.3246 55.8835V42.3501C70.3246 41.6437 70.004 41.2905 69.3629 41.2905H67.247L66.8142 40.0383C67.7439 39.2035 68.8018 38.5132 69.988 37.9674C71.2062 37.4215 72.2642 37.1486 73.1618 37.1486C73.6106 37.1486 73.9793 37.2931 74.2678 37.5821C74.5564 37.8711 74.7006 38.2403 74.7006 38.6898V43.8431C75.2456 42.4303 75.9669 41.1942 76.8646 40.1346C77.7943 39.043 78.8202 38.1921 79.9422 37.5821C81.0963 36.972 82.2504 36.667 83.4046 36.667C85.3601 36.667 86.8348 37.2449 87.8287 38.4008C88.8225 39.5567 89.3995 41.3708 89.5598 43.8431C90.1048 42.4303 90.8261 41.1942 91.7238 40.1346C92.6535 39.043 93.6794 38.1921 94.8014 37.5821C95.9555 36.972 97.1096 36.667 98.2638 36.667C100.412 36.667 101.967 37.3573 102.928 38.738C103.922 40.1186 104.419 42.318 104.419 45.3361V56.9912C104.419 58.0829 104.9 58.6287 105.862 58.6287C106.599 58.6287 107.4 58.2916 108.266 57.6173L109.18 58.8695C108.346 59.8006 107.449 60.5391 106.487 61.0849C105.525 61.6308 104.627 61.9037 103.794 61.9037Z" fill="white"/>
<path d="M145.217 61.9037C143.903 61.9037 142.957 61.5023 142.38 60.6996C141.803 59.8969 141.514 58.5966 141.514 56.7985V45.3361C141.514 42.0611 140.328 40.4236 137.956 40.4236C136.609 40.4236 135.423 40.9534 134.397 42.0129C133.372 43.0404 132.554 44.5013 131.945 46.3956C131.368 48.2579 131.047 50.4412 130.983 52.9456V53.5236C130.983 55.0647 131.111 56.349 131.368 57.3765C131.624 58.3718 132.201 59.4153 133.099 60.507L132.522 61.2294H126.655V45.3361C126.655 42.0611 125.469 40.4236 123.097 40.4236C121.718 40.4236 120.5 40.9694 119.442 42.0611C118.416 43.1528 117.599 44.6939 116.99 46.6846C116.412 48.6432 116.124 50.9228 116.124 53.5236C116.124 55.0326 116.236 56.2367 116.461 57.1357C116.685 58.0347 117.086 58.9016 117.663 59.7364L118.24 60.507L117.663 61.2294H109.247L108.718 59.7364L109.728 59.4956C110.562 59.303 111.107 58.9498 111.363 58.436C111.62 57.9223 111.748 57.0715 111.748 55.8835V42.3501C111.748 41.6437 111.427 41.2905 110.786 41.2905H108.67L108.238 40.0383C109.167 39.2035 110.225 38.5132 111.411 37.9674C112.63 37.4215 113.687 37.1486 114.585 37.1486C115.034 37.1486 115.403 37.2931 115.691 37.5821C115.98 37.8711 116.124 38.2403 116.124 38.6898V43.8431C116.669 42.4303 117.39 41.1942 118.288 40.1346C119.218 39.043 120.243 38.1921 121.366 37.5821C122.52 36.972 123.674 36.667 124.828 36.667C126.783 36.667 128.258 37.2449 129.252 38.4008C130.246 39.5567 130.823 41.3708 130.983 43.8431C131.528 42.4303 132.249 41.1942 133.147 40.1346C134.077 39.043 135.103 38.1921 136.225 37.5821C137.379 36.972 138.533 36.667 139.687 36.667C141.835 36.667 143.39 37.3573 144.352 38.738C145.345 40.1186 145.842 42.318 145.842 45.3361V56.9912C145.842 58.0829 146.323 58.6287 147.285 58.6287C148.022 58.6287 148.824 58.2916 149.689 57.6173L150.603 58.8695C149.77 59.8006 148.872 60.5391 147.91 61.0849C146.948 61.6308 146.051 61.9037 145.217 61.9037Z" fill="white"/>
<path d="M161.635 61.9037C159.23 61.9037 157.147 61.39 155.383 60.3625C153.652 59.3351 152.306 57.8742 151.344 55.9798C150.382 54.0854 149.901 51.854 149.901 49.2853C149.901 46.6846 150.382 44.4531 151.344 42.5909C152.306 40.6965 153.652 39.2356 155.383 38.2082C157.147 37.1807 159.23 36.667 161.635 36.667C164.039 36.667 166.107 37.1807 167.838 38.2082C169.601 39.2356 170.964 40.6965 171.926 42.5909C172.887 44.4531 173.368 46.6846 173.368 49.2853C173.368 51.854 172.887 54.0854 171.926 55.9798C170.964 57.8742 169.601 59.3351 167.838 60.3625C166.107 61.39 164.039 61.9037 161.635 61.9037ZM161.49 59.303C163.478 59.303 165.113 58.4039 166.395 56.6059C167.678 54.7758 168.319 52.3837 168.319 49.4298C168.319 48.4666 168.207 47.391 167.982 46.203C167.79 45.015 167.437 43.8912 166.924 42.8317C166.444 41.7721 165.786 40.9052 164.953 40.231C164.119 39.5246 163.061 39.1714 161.779 39.1714C160.433 39.1714 159.23 39.6049 158.172 40.4718C157.147 41.3066 156.345 42.4946 155.768 44.0357C155.191 45.5448 154.902 47.3107 154.902 49.3335C154.902 52.3516 155.496 54.7758 156.682 56.6059C157.868 58.4039 159.471 59.303 161.49 59.303Z" fill="white"/>
<path d="M180.587 61.9037C179.273 61.9037 178.247 61.5023 177.51 60.6996C176.805 59.8648 176.452 58.725 176.452 57.2802V40.3273H172.22C172.22 39.4604 172.284 38.8985 172.412 38.6416C172.541 38.3848 172.861 38.1921 173.374 38.0637C174.625 37.7426 175.586 37.2771 176.26 36.667C176.965 36.0249 177.478 35.3024 177.798 34.4997C178.151 33.697 178.407 32.8462 178.568 31.9472C178.664 31.4335 178.824 31.1124 179.049 30.9839C179.305 30.8555 179.898 30.7913 180.828 30.7913V37.2931H187.079C187.079 38.738 186.711 39.7494 185.973 40.3273H180.828V55.8353C180.828 56.8307 180.972 57.537 181.261 57.9544C181.549 58.3718 182.014 58.5805 182.655 58.5805C183.617 58.5805 184.707 58.0668 185.925 57.0394L186.839 58.2916C186.005 59.3832 185.012 60.2662 183.857 60.9404C182.703 61.5826 181.613 61.9037 180.587 61.9037Z" fill="white"/>
<path d="M208.614 62C207.3 62 206.354 61.5987 205.777 60.796C205.2 59.9933 204.911 58.6929 204.911 56.8949V45.4324C204.911 43.7949 204.607 42.5588 203.998 41.724C203.389 40.8571 202.315 40.4236 200.776 40.4236C199.397 40.4236 198.179 40.9694 197.121 42.0611C196.095 43.1528 195.278 44.6939 194.669 46.6846C194.092 48.6432 193.803 50.9228 193.803 53.5236C193.803 55.0326 193.915 56.2367 194.14 57.1357C194.364 58.0347 194.765 58.9016 195.342 59.7364L195.919 60.507L195.342 61.2294H186.926L186.397 59.7364L187.407 59.4956C188.241 59.303 188.786 58.9498 189.042 58.436C189.299 57.9223 189.427 57.0715 189.427 55.8835V28.7685C189.427 28.0621 189.106 27.709 188.465 27.709H186.349L185.917 26.4568C186.846 25.622 187.904 24.9316 189.09 24.3858C190.309 23.84 191.367 23.5671 192.264 23.5671C192.713 23.5671 193.082 23.7115 193.37 24.0005C193.659 24.2895 193.803 24.6587 193.803 25.1082V43.8431C194.348 42.4303 195.085 41.1942 196.015 40.1346C196.977 39.043 198.035 38.1921 199.189 37.5821C200.375 36.972 201.577 36.667 202.795 36.667C205.2 36.667 206.867 37.3734 207.797 38.7861C208.758 40.1989 209.239 42.4143 209.239 45.4324V57.0875C209.239 58.1792 209.72 58.725 210.682 58.725C211.483 58.725 212.285 58.3879 213.086 57.7136L214 58.9658C213.166 59.8969 212.269 60.6354 211.307 61.1813C210.345 61.7271 209.448 62 208.614 62Z" fill="white"/>
</svg>
