<svg width="20" height="20" viewBox="0 0 20 20" fill="none" xmlns="http://www.w3.org/2000/svg">
<path fill-rule="evenodd" clip-rule="evenodd" d="M10.9914 0.86904C10.9256 0.37178 10.5016 0 10 0C9.4983 0 9.0743 0.37171 9.0086 0.86904L9.0075 0.87704L9.0029 0.91013C8.9985 0.94035 8.9917 0.98656 8.9822 1.04699C8.9633 1.16792 8.9339 1.34537 8.8927 1.56523C8.81 2.00611 8.6812 2.61161 8.4967 3.27082C8.1127 4.64363 7.5417 6.04408 6.79289 6.79289C6.04408 7.5417 4.64363 8.1127 3.27082 8.4967C2.61161 8.6812 2.00611 8.81 1.56523 8.8927C1.34537 8.9339 1.16792 8.9633 1.04699 8.9822C0.98656 8.9917 0.94035 8.9985 0.91013 9.0029L0.87704 9.0075L0.86992 9.0085L0.86891 9.0086C0.37165 9.0744 0 9.4984 0 10C0 10.5017 0.37171 10.9257 0.86904 10.9914L0.87704 10.9925L0.91013 10.9971C0.94035 11.0015 0.98656 11.0083 1.04699 11.0178C1.16792 11.0367 1.34537 11.0661 1.56523 11.1073C2.00611 11.19 2.61161 11.3188 3.27082 11.5033C4.64363 11.8873 6.04408 12.4583 6.79289 13.2071C7.5417 13.9559 8.1127 15.3564 8.4967 16.7292C8.6812 17.3884 8.81 17.9939 8.8927 18.4348C8.9339 18.6546 8.9633 18.8321 8.9822 18.953C8.9917 19.0134 8.9985 19.0596 9.0029 19.0899L9.0075 19.123L9.0085 19.1301C9.0742 19.6274 9.4983 20 10 20C10.5017 20 10.9257 19.6283 10.9914 19.131L10.9925 19.123L10.9971 19.0899C11.0015 19.0596 11.0083 19.0134 11.0178 18.953C11.0367 18.8321 11.0661 18.6546 11.1073 18.4348C11.19 17.9939 11.3188 17.3884 11.5033 16.7292C11.8873 15.3564 12.4583 13.9559 13.2071 13.2071C13.9559 12.4583 15.3564 11.8873 16.7292 11.5033C17.3884 11.3188 17.9939 11.19 18.4348 11.1073C18.6546 11.0661 18.8321 11.0367 18.953 11.0178C19.0134 11.0083 19.0596 11.0015 19.0899 10.9971L19.123 10.9925L19.1301 10.9915C19.6274 10.9258 20 10.5017 20 10C20 9.4983 19.6283 9.0743 19.131 9.0086L19.123 9.0075L19.0899 9.0029C19.0596 8.9985 19.0134 8.9917 18.953 8.9822C18.8321 8.9633 18.6546 8.9339 18.4348 8.8927C17.9939 8.81 17.3884 8.6812 16.7292 8.4967C15.3564 8.1127 13.9559 7.5417 13.2071 6.79289C12.4583 6.04408 11.8873 4.64363 11.5033 3.27082C11.3188 2.61161 11.19 2.00611 11.1073 1.56523C11.0661 1.34537 11.0367 1.16792 11.0178 1.04699C11.0083 0.98656 11.0015 0.94035 10.9971 0.91013L10.9925 0.87704L10.9914 0.86904Z" fill="#9F99E3"/>
</svg>
